mtllib hand1_link_1_1_visuals.mtl
v -0.005149965174496174 -0.014547276310622692 0.01702839136123657
v -0.005149965640157461 -0.014604630880057812 0.01676659099757671
v -0.004949965514242649 -0.0147900665178895 0.016841512173414227
v -0.004949965979903936 -0.0159026887267828 0.017291041091084477
v -0.005149965640157461 -0.016088126227259636 0.017365962266921994
v -0.004949965979903936 -0.015830907970666885 0.01742015592753887
v -0.005149965640157461 -0.015947522595524788 0.01759412884712219
v -0.004949965979903936 -0.014752011746168137 0.016984254121780392
v -0.004949965514242649 -0.01474705245345831 0.017037862911820408
v -0.0051499661058187485 -0.014624739065766335 0.017411585897207257
v -0.004949965514242649 -0.014784112572669983 0.01727570034563541
v -0.004949965979903936 -0.014805151149630547 0.01732525788247585
v -0.005149965640157461 -0.014874538406729698 0.017712315544486042
v -0.004949965979903936 -0.014950491487979889 0.01751713268458843
v -0.004949965514242649 -0.014992497861385345 0.017550805583596226
v -0.004949965514242649 -0.01512161549180746 0.01762258633971214
v -0.005149965640157461 -0.01523701660335064 0.017858766019344326
v -0.004949965979903936 -0.015264354646205902 0.017660643905401226
v -0.004949965514242649 -0.015317965298891068 0.01766560412943363
v -0.005149965640157461 -0.015625610947608948 0.017815962433815
v -0.004949965979903936 -0.015555803664028645 0.01762854121625423
v -0.004949965979903936 -0.015605361200869083 0.017607504501938816
v -0.004949965514242649 -0.015797236934304237 0.017462164163589474
v 0.0034999994095414877 -7.656374839681845e-11 -0.005999999586492775
v 0.0034999996423721313 -7.678571112279542e-10 -0.0061999992467463
v 0.003288924926891923 0.0011970706982538104 -0.0061999992467463
v 0.0032889246940612793 0.0011970713967457414 -0.005999999586492775
v 0.0026811554562300444 0.0022497575264424086 -0.006199998781085013
v 0.0026811552233994007 0.0022497563622891903 -0.005999999586492775
v 0.0017500006360933185 0.0030310882721096277 -0.006200001109391449
v 0.001750000286847353 0.0030310889706015587 -0.006000001449137924
v 0.0006077683647163212 0.003446826944127679 -0.006200000643730162
v 0.0006077690050005913 0.0034468267112970352 -0.006000000983476637
v -0.0006077687721699476 0.0034468271769583225 -0.0062000001780688745
v -0.0006077681318856776 0.003446826944127679 -0.00600000051781535
v -0.001750000286847353 0.0030310885049402714 -0.006200000643730162
v -0.0017499997047707438 0.0030310892034322023 -0.006000000983476637
v -0.0026811559218913317 0.002249756595119834 -0.006199999712407587
v -0.0026811552233994007 0.002249757293611765 -0.0060000000521540624
v -0.0032889244612306356 0.0011970708146691322 -0.0062000001780688745
v -0.0032889237627387047 0.001197069650515914 -0.00600000051781535
v -0.0034999994095414877 -5.254542911892202e-10 -0.0062000015750527365
v -0.003500000573694706 2.1465533517339708e-10 -0.005999998189508913
v 0.010650034062564373 -0.015814635902643204 0.015907296910881993
v 0.011450035497546196 -0.015814634039998055 0.015907295048236843
v 0.010650034062564373 -0.015172410756349564 0.01582843996584415
v 0.011450033634901047 -0.015172412618994713 0.0158284418284893
v 0.010650034993886948 -0.014576802961528301 0.016081262379884716
v 0.011450034566223621 -0.014576801098883152 0.016081260517239567
v 0.010650033131241798 -0.014187399297952652 0.01659801788628101
v 0.011450034566223621 -0.014187398366630077 0.01659801602363586
v 0.010650034993886948 -0.01410854235291481 0.01724024303257465
v 0.011450033634901047 -0.014108541421592236 0.0172402411699295
v 0.010650034993886948 -0.014361364766955376 0.017835851758718487
v 0.011450033634901047 -0.014361363835632801 0.017835851758718487
v 0.010650034062564373 -0.01487812027335167 0.018225254490971562
v 0.011450034566223621 -0.014878119342029095 0.018225254490971562
v 0.008950034156441689 -0.021102292463183403 0.010048552416265009
v 0.011450033634901047 -0.021102294325828552 0.010048552416265009
v 0.008950035087764263 -0.021630004048347473 0.009872498922049998
v 0.011450034566223621 -0.021630002185702324 0.009872498922049998
v 0.008950035087764263 -0.02202906645834446 0.009484916925430296
v 0.011450034566223621 -0.02202906832098961 0.009484916925430296
v 0.008950034156441689 -0.022220447659492493 0.008962569758296011
v 0.011450034566223621 -0.022220445796847343 0.008962568826973437
v 0.008950034156441689 -0.022166233509778976 0.008408915251493452
v 0.011450034566223621 -0.022166233509778976 0.008408913388848303
v 0.008950034156441689 -0.021877167746424675 0.00793361011892557
v 0.011450033634901047 -0.021877165883779526 0.00793361011892557
v 0.008950034156441689 -0.02141050063073635 0.007630798034369944
v 0.011450033634901047 -0.0214105024933815 0.007630798500031231
v 0.008950034156441689 -0.02085866406559944 0.0075604519806802255
v 0.011450033634901047 -0.02085866592824459 0.007560452446341513
v 0.0057472726330161095 0.005124339368194342 -1.501070934217807e-09
v 0.005747273098677397 0.005124339833855629 -0.006000000983476637
v 0.0045486995950341225 0.006212835665792227 -0.006000001914799212
v 0.0045486995950341225 0.006212836131453514 1.7233479088218924e-09
v 0.003149014664813876 0.007026642560958862 -0.00600000051781535
v 0.003149013966321945 0.007026642560958862 -9.02727725904384e-10
v 0.0016101007349789143 0.007529779803007841 -0.005999998189508913
v 0.0016101005021482706 0.0075297788716852665 -4.5758991040756304e-10
v 4.755935090194896e-10 0.007699999492615461 -0.00600000051781535
v -2.085705774756974e-10 0.007699999958276749 -8.201562207155175e-10
v 0.010650034993886948 -0.014604629948735237 0.01676659099757671
v 0.010450033470988274 -0.014790067449212074 0.016841510310769078
v 0.010650034062564373 -0.014853850938379765 0.01643586717545986
v 0.010450034402310848 -0.014976981095969677 0.016593469306826588
v 0.010650034993886948 -0.01523503940552473 0.016274061053991314
v 0.010450034402310848 -0.015262874774634838 0.016472116112709042
v 0.010650034993886948 -0.015646062791347504 0.016324527561664578
v 0.010450034402310848 -0.015571141615509987 0.016509965062141415
v 0.010650034062564373 -0.015976784750819206 0.01657374575734138
v 0.010450034402310848 -0.015819186344742775 0.016696877777576443
v 0.010650034993886948 -0.01613859087228775 0.016954937949776646
v 0.010450033470988274 -0.01592145673930645 0.01689515076577663
v 0.010450035333633423 -0.01594053953886032 0.016982771456241604
v 0.010650034993886948 -0.016088126227259636 0.017365962266921994
v 0.010450034402310848 -0.015938755124807358 0.017161613330245015
v 0.010450034402310848 -0.01590268686413765 0.017291039228439328
v 0.008950035087764263 -0.015571142546832561 0.016509965062141415
v 0.008950035087764263 -0.015262875705957413 0.016472114250063893
v 0.008950035087764263 -0.014976982027292252 0.016593469306826588
v 0.008950034156441689 -0.014790068380534649 0.016841512173414227
v 0.008950035087764263 -0.014752216637134552 0.0171497780829668
v 0.010450034402310848 -0.014752215705811977 0.01714977994561195
v 0.008950034156441689 -0.014873573556542397 0.01743567362427711
v 0.010450033470988274 -0.014873572625219822 0.017435671761631962
v 0.008950033225119114 -0.015121614560484886 0.01762258633971214
v 0.010450034402310848 -0.015121613629162312 0.01762258633971214
v -0.005949965678155422 -0.021102294325828552 0.010048552416265009
v -0.003449966199696064 -0.021102294325828552 0.010048552416265009
v -0.0059499661438167095 -0.021630005910992622 0.009872500784695147
v -0.0034499657340347767 -0.021630004048347473 0.009872500784695147
v -0.0059499661438167095 -0.02202906832098961 0.009484916925430296
v -0.0034499657340347767 -0.02202906645834446 0.009484916925430296
v -0.005949965678155422 -0.022220445796847343 0.008962570689618586
v -0.003449966199696064 -0.022220443934202194 0.008962570689618586
v -0.005949965678155422 -0.022166233509778976 0.008408915251493452
v -0.003449966199696064 -0.022166231647133827 0.008408916182816027
v -0.0059499661438167095 -0.021877169609069824 0.007933611981570719
v -0.003449965501204133 -0.021877167746424675 0.007933611050248144
v -0.0059499661438167095 -0.0214105024933815 0.007630798500031231
v -0.003449965501204133 -0.0214105024933815 0.007630798965692518
v -0.0059499661438167095 -0.02085866592824459 0.007560452446341513
v -0.0034499664325267076 -0.02085866406559944 0.007560452446341513
v -0.0034499657340347767 -0.014950490556657314 0.017517134547233578
v -0.0034499659668654203 -0.01512161549180746 0.01762258633971214
v -0.004949965514242649 -0.015571143478155136 0.016509966924786564
v -0.0034499659668654203 -0.015571142546832561 0.016509965062141415
v -0.004949965514242649 -0.015428400598466396 0.016471909359097477
v -0.0034499659668654203 -0.01537479367107153 0.016466949135065075
v -0.004949965514242649 -0.015374789945781231 0.016466949135065075
v -0.004949965979903936 -0.015136956237256527 0.016504012048244473
v -0.003449965501204133 -0.015087396837770939 0.016525046899914738
v -0.004949965979903936 -0.015087397769093513 0.016525046899914738
v -0.004949965514242649 -0.01489552017301321 0.01667038723826408
v -0.0034499652683734894 -0.014861847274005413 0.016712395474314686
v -0.004949965514242649 -0.014861848205327988 0.016712395474314686
v -0.003449965501204133 -0.014752010814845562 0.016984254121780392
v -0.0034499659668654203 -0.014784111641347408 0.01727570034563541
v -0.004949965514242649 -0.015700258314609528 0.016581747680902478
v -0.0034499652683734894 -0.015742268413305283 0.016615418717265126
v -0.0034499650355428457 -0.015317965298891068 0.01766560226678848
v -0.0034499657340347767 -0.015605361200869083 0.017607504501938816
v -0.0034499657340347767 -0.015830906108021736 0.01742015592753887
v -0.0034499657340347767 -0.015940748155117035 0.01714829914271831
v -0.0034499659668654203 -0.01590864174067974 0.016856852918863293
v -0.004949965514242649 -0.01594570279121399 0.017094690352678295
v -0.004949965979903936 -0.015940744429826736 0.017148297280073162
v -0.004949965979903936 -0.015742268413305283 0.016615418717265126
v -0.004949965979903936 -0.015887608751654625 0.016807295382022854
v -0.004949965514242649 -0.01590864360332489 0.016856852918863293
v -0.005949965678155422 -0.01984219253063202 0.008287971839308737
v -0.005949965678155422 -0.019931893795728683 0.008124087937176226
v -0.0034499659668654203 -0.019931891933083534 0.008124087937176226
v -0.005949965212494135 -0.020252959802746773 0.007788029965013264
v -0.003449966199696064 -0.02033095434308052 0.0077365059405565244
v -0.005949966609477997 -0.01974051631987095 0.008646436035633085
v -0.003449965501204133 -0.0197405144572258 0.00864643510431051
v -0.0059499661438167095 -0.019736431539058685 0.008926317095756529
v -0.003449965501204133 -0.019794726744294167 0.00920008961111307
v -0.005949966609477997 -0.019794728606939316 0.009200090542435644
v -0.005949965678155422 -0.019964007660746574 0.009532023221254347
v -0.003449966199696064 -0.02008379064500332 0.009675394743680952
v -0.005949965678155422 -0.020083792507648468 0.009675393812358378
v -0.003449966199696064 -0.020550455898046494 0.009978206828236578
v -0.005949965678155422 -0.02046394906938076 0.009942788630723952
v -0.005949965678155422 -0.020465100184082985 0.0063582034781575186
v -0.0034499659668654203 -0.020465098321437836 0.006358203943818806
v -0.003449966199696064 -0.021448982879519463 0.006348794326186178
v -0.005949965678155422 -0.021448984742164612 0.006348794326186178
v -0.0034499659668654203 -0.02236029878258705 0.006719771306961773
v -0.005949965678155422 -0.02236029878258705 0.006719773169606922
v -0.003449966199696064 -0.023057879880070686 0.007413672748953102
v -0.005949965678155422 -0.023057881742715836 0.007413672748953102
v -0.003449965501204133 -0.02343367412686348 0.008323010988533495
v -0.0059499661438167095 -0.02343367412686348 0.008323010988533495
v -0.0034499657340347767 -0.023429470136761665 0.009306931868195532
v -0.005949965678155422 -0.023429471999406815 0.009306933730840681
v -0.003449966199696064 -0.023045923560857773 0.010213027708232401
v -0.005949965678155422 -0.023045923560857773 0.010213027708232401
v 0.010450034402310848 -0.01542988047003746 0.017660437151789662
v 0.008950034156441689 -0.015385248698294163 0.01766501553356647
v 0.010450034402310848 -0.01564118079841137 0.017588855698704716
v 0.008950035087764263 -0.01564118079841137 0.017588857561349865
v 0.010450035333633423 -0.01571577414870262 0.017539082095026966
v 0.008950034156441689 -0.015838725492358208 0.017409196123480793
v 0.010450035333633423 -0.015838725492358208 0.017409194260835644
v 0.008950034156441689 -0.015938756987452507 0.017161613330245015
v 0.008950034156441689 -0.0159214586019516 0.01689514890313148
v 0.008950035087764263 -0.01579025760293007 0.016662579029798504
v 0.010650034062564373 -0.01583890989422798 0.017696682363748547
v 0.010650034993886948 -0.014554164372384548 0.01717761345207691
v 0.010650034062564373 -0.014715971425175667 0.017558805644512173
v 0.010650034993886948 -0.01504669338464737 0.017808021977543827
v 0.010650034062564373 -0.015457716770470142 0.01785849034786224
v -0.00172427820507437 0.007504456210881472 -0.005999999120831488
v -0.0017242779722437263 0.007504456676542759 8.99295637957209e-10
v -0.0033609794918447733 0.006927757523953915 -0.0060000000521540624
v -0.0033609794918447733 0.006927757058292627 -4.0519465560606694e-10
v -0.004826974123716354 0.00599919306114316 -0.006000001449137924
v -0.004826974123716354 0.005999193526804447 3.580453433738028e-10
v -0.006047804839909077 0.004765926860272884 -0.0060000000521540624
v -0.006047804374247789 0.004765926394611597 -1.8670819057486904e-10
v -0.006961463484913111 0.0032905968837440014 -0.0060000000521540624
v -0.006961463484913111 0.003290596418082714 -2.2345825190228647e-10
v -0.007521545514464378 0.0016481352504342794 -0.0060000000521540624
v -0.007521545980125666 0.001648135599680245 -2.919076647067697e-10
v -0.007699604611843824 -7.803679909557104e-05 -0.0060000000521540624
v -0.007699604611843824 -7.803639164194465e-05 -2.0433781056095052e-10
v -0.007486595772206783 -0.0018002449069172144 -0.006000001449137924
v -0.007486596237868071 -0.001800244441255927 2.9237209875354603e-10
v -0.006893339101225138 -0.0034310156479477882 -0.0060000000521540624
v -0.006893339101225138 -0.00343101704493165 -2.9815541702227217e-10
v -0.0059499661438167095 -0.004887524992227554 -0.005999999120831488
v -0.0059499661438167095 -0.004887526389211416 4.2049222437334766e-10
v 0.006493672262877226 0.0047898381017148495 1.2917175662430222e-10
v 0.006493671331554651 0.004789838567376137 -0.0060000000521540624
v 0.006084708962589502 0.004877287428826094 1.327681020679705e-12
v 0.00608470942825079 0.004877286963164806 -0.005999999586492775
v 0.007469375152140856 0.0047898381017148495 -0.005999999120831488
v 0.0074693746864795685 0.004789838567376137 3.6222630450666305e-10
v 0.007964828982949257 0.004658473655581474 -3.5940633802411515e-10
v 0.007964827120304108 0.004658473189920187 -0.00600000051781535
v 0.008330111391842365 0.004298891872167587 -1.2622122236294329e-09
v 0.008330109529197216 0.0042988914065063 -0.006000001449137924
v 0.009333064779639244 0.0022734194062650204 1.7024101017781841e-09
v 0.009333062916994095 0.002273418940603733 -0.005999998189508913
v 0.010025051422417164 0.00012176796008134261 8.046793786853355e-10
v 0.01002505049109459 0.00012176755262771621 -0.005999999120831488
v 0.011170847341418266 -0.0046250359155237675 -0.0059999986551702005
v 0.011170848272740841 -0.0046250359155237675 1.155650797279861e-09
v 0.01137999165803194 -0.005789979360997677 -0.0060000000521540624
v 0.011379992589354515 -0.0057899788953363895 -9.500186748390147e-11
v 0.011450032703578472 -0.006971471942961216 -0.006000001449137924
v 0.011450033634901047 -0.006971473339945078 -1.5485625004529875e-09
v -0.005949965678155422 -0.007400248199701309 -5.398503866160808e-10
v -0.003449966199696064 -0.0074002486653625965 -3.3596880832931214e-10
v -0.0028440523892641068 -0.010039453394711018 5.020858728776999e-10
v -0.003340704832226038 -0.011385687626898289 8.40616631858637e-10
v -0.003449966199696064 -0.012425246648490429 1.078345635008304e-09
v 0.011450033634901047 -0.007400248199701309 -5.875903097418699e-10
v 0.008950034156441689 -0.007400247734040022 1.0267645622619168e-09
v 0.008950034156441689 -0.012425245717167854 6.228425553089777e-10
v 0.008840772323310375 -0.011385687626898289 -1.0308284226212548e-09
v 0.008344120346009731 -0.010039451532065868 -6.651318384953696e-10
v 0.0063358270563185215 -0.008031160570681095 -1.1257683674159578e-09
v 0.007485567592084408 -0.008889713324606419 -3.238180834586046e-10
v 0.0015500325243920088 -0.007425246760249138 1.6391233925716615e-09
v 0.00395003380253911 -0.007425247225910425 2.1446941445013574e-10
v 0.004989592358469963 -0.007534508127719164 1.320185294417797e-09
v -0.0019855001010000706 -0.008889713324606419 -2.688434752595725e-10
v -0.000835760438349098 -0.00803116150200367 6.792977985670133e-11
v 0.000510475249029696 -0.007534508127719164 -4.813562881622601e-10
v 0.008950035087764263 -0.020252957940101624 0.007788029965013264
v 0.011450034566223621 -0.020252959802746773 0.007788029965013264
v 0.008950034156441689 -0.01984219439327717 0.008287971839308737
v 0.011450034566223621 -0.01984219253063202 0.008287969976663588
v 0.008950034156441689 -0.019736427813768387 0.008926316164433954
v 0.011450033634901047 -0.019736427813768387 0.008926317095756529
v 0.008950034156441689 -0.019964005798101425 0.009532020427286623
v 0.011450034566223621 -0.019964009523391724 0.009532021358609198
v 0.008950033225119114 -0.02046394720673561 0.009942787699401377
v 0.011450034566223621 -0.02046394906938076 0.009942788630723952
v 0.008950033225119114 -0.020465098321437836 0.006358203012496231
v 0.011450033634901047 -0.020465096458792686 0.006358201615512369
v 0.011450034566223621 -0.021448984742164612 0.006348794326186178
v 0.008950033225119114 -0.021448981016874313 0.006348793860524891
v 0.011450033634901047 -0.022360296919941902 0.006719770841300486
v 0.008950033225119114 -0.022360296919941902 0.006719770841300486
v 0.011450034566223621 -0.023057881742715836 0.007413672748953102
v 0.008950033225119114 -0.023057878017425537 0.007413672283291815
v 0.011450033634901047 -0.02343367598950863 0.008323010988533495
v 0.008950034156441689 -0.02343367226421833 0.00832301005721092
v 0.011450033634901047 -0.023429471999406815 0.009306931868195532
v 0.008950034156441689 -0.023429473862051964 0.009306930936872957
v 0.011450034566223621 -0.023045923560857773 0.010213027708232401
v 0.008950033225119114 -0.023045921698212624 0.010213026776909826
v 0.008950034156441689 -0.016764340922236443 0.019125251099467274
v 0.008950034156441689 -0.017411822453141212 0.01847480051219463
v 0.011450030840933323 -0.017411820590496063 0.01847480051219463
v 0.011450035497546196 -0.014079097658395767 0.01922127045691013
v 0.011450035497546196 -0.01337635237723589 0.018605429679155346
v 0.008950034156441689 -0.01337635051459074 0.018605427816510197
v 0.008950035087764263 -0.014064542949199677 0.01921264454722404
v 0.008950035087764263 -0.014953307807445526 0.019535182043910023
v 0.011450033634901047 -0.01495887991040945 0.01953606307506561
v 0.008950034156441689 -0.015898294746875763 0.019504593685269352
v 0.011450035497546196 -0.015892794355750084 0.01950583234429359
v 0.011450034566223621 -0.016750376671552658 0.01913480088114738
v 0.010650034993886948 -0.015427353791892529 0.018313650041818615
v 0.011450033634901047 -0.015427352860569954 0.018313650041818615
v 0.010650033131241798 -0.01596055179834366 0.018154986202716824
v 0.011450034566223621 -0.01596054993569851 0.018154986202716824
v 0.010650034993886948 -0.01637210138142109 0.01778069138526916
v 0.011450033634901047 -0.01637210324406624 0.017780689522624012
v 0.010650033131241798 -0.016580497846007347 0.01726489700376987
v 0.011450034566223621 -0.016580497846007347 0.017264895141124722
v 0.010650034062564373 -0.016544459387660027 0.016709763556718823
v 0.011450035497546196 -0.016544459387660027 0.016709761694073674
v 0.010650034993886948 -0.01627112552523613 0.01622524112462997
v 0.011450033634901047 -0.01627112738788128 0.01622523926198482
v 0.008950034156441689 -0.012425245717167854 -0.004554687533527612
v 0.008950033225119114 -0.012455984950065613 -0.004502789583057164
v 0.008950033225119114 -0.012786583043634892 -0.0036574960686266414
v 0.008950034156441689 -0.014269481413066387 0.011356555856764315
v 0.008950033225119114 -0.008400246500968933 0.0010000012116506694
v 0.008950033225119114 -0.00832412764430046 0.0006173173896968364
v 0.008950033225119114 -0.01573171652853489 0.014672034420073029
v 0.008950035087764263 -0.019019387662410736 0.0104304701089859
v 0.008950033225119114 -0.008107354864478111 0.0002928937610704451
v 0.008950033225119114 -0.0077829305082559586 7.612080662511288e-05
v 0.00893990509212017 -0.012109563685953617 -0.004984264727681874
v 0.00890384055674076 -0.011747664771974087 -0.005331288557499646
v 0.008823047392070293 -0.011305542662739754 -0.005628501065075397
v 0.008691261522471905 -0.010837718844413757 -0.0058360425755381575
v 0.008498323149979115 -0.010348527692258358 -0.005959877278655766
v 0.008241541683673859 -0.009859521873295307 -0.0060000000521540624
v 0.008344434201717377 -0.010040068067610264 -0.005994560662657021
v 0.003950032871216536 -0.007425245828926563 -0.0060000000521540624
v 0.004989590961486101 -0.007534508127719164 -0.0059999986551702005
v 0.006335827987641096 -0.008031160570681095 -0.006000000983476637
v 0.007485566660761833 -0.00888971146196127 -0.00600000051781535
v 0.0017500005196779966 -0.0030310896690934896 -0.0062000001780688745
v -0.0032889237627387047 -0.0011970701161772013 -0.0062000015750527365
v 0.0032889246940612793 -0.001197070232592523 -0.006200000643730162
v 0.0026811561547219753 -0.002249755896627903 -0.006200001109391449
v -0.0026811559218913317 -0.0022497568279504776 -0.006199998315423725
v -0.0017500004032626748 -0.0030310896690934896 -0.006199999712407587
v -0.0006077681318856776 -0.0034468271769583225 -0.0062000001780688745
v 0.0006077690632082522 -0.0034468264784663916 -0.006200000643730162
v -0.0032889246940612793 -0.0011970712803304195 -0.005999998189508913
v -0.0026811554562300444 -0.0022497561294585466 -0.0059999986551702005
v -0.0017499997047707438 -0.0030310889706015587 -0.0060000000521540624
v -0.0006077684229239821 -0.0034468264784663916 -0.00600000051781535
v 0.0006077687139622867 -0.00344682764261961 -0.006000000983476637
v 0.001750000286847353 -0.0030310889706015587 -0.00600000051781535
v 0.0026811559218913317 -0.0022497570607811213 -0.006000001449137924
v 0.0032889244612306356 -0.0011970713967457414 -0.006000000983476637
v -0.002741475822404027 -0.009859520010650158 -0.005999999586492775
v -0.005949965678155422 -0.009859520941972733 -0.006000001449137924
v -0.001985500566661358 -0.00888971146196127 -0.005999998189508913
v 0.011450032703578472 -0.009859520941972733 -0.006000001914799212
v 0.0015500340377911925 -0.007425245363265276 -0.006000001449137924
v 0.0005104750161990523 -0.007534508593380451 -0.00600000051781535
v -0.0008357602637261152 -0.00803116150200367 -0.006000001449137924
v 0.011450034566223621 -0.015731720253825188 0.014672034420073029
v 0.011450034566223621 -0.019019385799765587 0.010430471040308474
v 0.011450033634901047 -0.007900247350335121 0.00013397273141890762
v 0.011450031772255898 -0.012786585837602615 -0.003657494205981492
v 0.011450033634901047 -0.012455985881388187 -0.004502787254750728
v 0.011450033634901047 -0.008107353933155537 0.00029289213125593955
v 0.011450033634901047 -0.01173402275890112 -0.005342271178960799
v 0.011450033634901047 -0.01075671799480915 -0.00586269563063979
v 0.011450034566223621 -0.008266272023320198 0.0004999978118576108
v 0.011450032703578472 -0.008400247432291508 0.0009999995818361638
v 0.011450033634901047 -0.014269479550421238 0.011356555856764315
v -0.0034499657340347767 -0.014064543880522251 0.01921264454722404
v -0.0034499659668654203 -0.013376351445913315 0.018605429679155346
v -0.005949965678155422 -0.01337635237723589 0.018605429679155346
v -0.005949965212494135 -0.016764340922236443 0.019125251099467274
v -0.005949965678155422 -0.017411820590496063 0.01847480051219463
v -0.0034499659668654203 -0.017411822453141212 0.01847480237483978
v -0.0034499657340347767 -0.016764342784881592 0.019125251099467274
v -0.003449965501204133 -0.015898296609520912 0.019504591822624203
v -0.0059499661438167095 -0.015898296609520912 0.019504593685269352
v -0.0034499652683734894 -0.0149533087387681 0.019535182043910023
v -0.005949965678155422 -0.014953309670090675 0.019535182043910023
v -0.0059499661438167095 -0.014064541086554527 0.01921264454722404
v -0.0059499661438167095 -0.01075671799480915 -0.00586269563063979
v -0.005949965678155422 -0.01173402275890112 -0.005342274904251098
v -0.0059499661438167095 -0.012455985881388187 -0.004502787254750728
v -0.0059499661438167095 -0.007782930973917246 7.612125773448496e-05
v -0.005949965678155422 -0.008107353933155537 0.000292894197627902
v -0.005949965678155422 -0.019019385799765587 0.010430472902953623
v -0.0059499661438167095 -0.014269479550421238 0.011356557719409464
v -0.005949965678155422 -0.01573171839118004 0.014672034420073029
v -0.0059499661438167095 -0.01450534351170063 0.016141528263688084
v -0.0059499661438167095 -0.014187397435307503 0.01659801788628101
v -0.0059499661438167095 -0.01650535874068737 0.017534533515572544
v -0.005949965678155422 -0.016115956008434296 0.018051289021968838
v -0.0059499661438167095 -0.015520344488322735 0.018304111436009404
v -0.005949965212494135 -0.008324128575623035 0.0006173160509206354
v -0.0059499661438167095 -0.01278658490628004 -0.003657493740320205
v -0.005949965678155422 -0.008400246500968933 0.0009999998146668074
v -0.005949965678155422 -0.01487811841070652 0.01822525635361671
v -0.005949965678155422 -0.014361363835632801 0.017835853621363636
v -0.005949965678155422 -0.014108545146882534 0.01724024303257465
v -0.0059499661438167095 -0.016593754291534424 0.01698530092835426
v -0.0059499661438167095 -0.016435090452432632 0.016452103853225705
v -0.005949965212494135 -0.023429471999406815 0.009306931868195532
v -0.005949965678155422 -0.01606079563498497 0.016040552407503125
v -0.005949965678155422 -0.015545000322163105 0.015832157805562016
v -0.005949965212494135 -0.014989865012466908 0.015868194401264187
v -0.0051499661058187485 -0.014187400229275227 0.01659801788628101
v -0.0051499661058187485 -0.014505341649055481 0.016141526401042935
v -0.005149965640157461 -0.014989864081144333 0.015868196263909336
v -0.005149965640157461 -0.01554499939084053 0.015832157805562016
v -0.0051499661058187485 -0.01606079377233982 0.016040552407503125
v -0.0051499661058187485 -0.016435088589787483 0.016452103853225705
v -0.0051499661058187485 -0.016593752428889275 0.01698529906570911
v -0.0051499661058187485 -0.01650535874068737 0.017534535378217694
v -0.005149965640157461 -0.016115954145789146 0.018051289021968838
v -0.0051499661058187485 -0.015520342625677586 0.018304111436009404
v -0.0051499661058187485 -0.014878121204674244 0.01822525635361671
v -0.005149965640157461 -0.01436136569827795 0.017835853621363636
v -0.005149965640157461 -0.014108543284237385 0.01724024303257465
v -0.0051499661058187485 -0.016145480796694756 0.017104160040616986
v -0.0051499661058187485 -0.01606801524758339 0.016720967367291447
v -0.005149965640157461 -0.015818219631910324 0.01642023772001266
v -0.005149965640157461 -0.015455741435289383 0.016273787245154377
v -0.005149965640157461 -0.015067147091031075 0.016316590830683705
v -0.005149965640157461 -0.014745235443115234 0.016538424417376515
v -0.003449965501204133 -0.014269478619098663 0.01135655678808689
v -0.0034499666653573513 -0.012786583974957466 -0.003657495602965354
v -0.0034499666653573513 -0.012455985881388187 -0.004502789117395877
v -0.0034499664325267076 -0.012425246648490429 -0.0045546870678663245
v -0.003449966199696064 -0.007900248281657696 0.00013397500151768324
v -0.0034499664325267076 -0.008107353933155537 0.00029289239319041366
v -0.003449966199696064 -0.008266272954642773 0.0004999999073334037
v -0.003449966898187995 -0.008400247432291508 0.0009999998146668074
v -0.0034499659668654203 -0.01573171839118004 0.014672034420073029
v -0.003449966199696064 -0.019019387662410736 0.010430472902953623
v -0.0034400797449052334 -0.012113415636122227 -0.004979888442903756
v -0.0033216120209544897 -0.01129960361868143 -0.0056317602284252635
v -0.003400159766897559 -0.01172182708978653 -0.005351982079446315
v -0.002844384405761957 -0.0100400997325778 -0.005994561128318308
v -0.003002328332513571 -0.010357468388974667 -0.005958385299891232
v -0.003192464355379343 -0.01084151305258274 -0.00583472941070795
v -0.0019855014979839325 -0.00888971146196127 -0.0059999986551702005
usemtl Purple
f 1 2 3
f 4 5 6
f 6 5 7
f 3 8 1
f 1 8 9
f 1 9 10
f 9 11 10
f 10 11 12
f 10 12 13
f 13 12 14
f 14 15 13
f 13 15 16
f 13 16 17
f 16 18 17
f 17 18 19
f 17 19 20
f 19 21 20
f 20 21 22
f 20 22 7
f 7 22 23
f 7 23 6
f 24 25 26
f 24 26 27
f 27 26 28
f 27 28 29
f 29 28 30
f 29 30 31
f 31 30 32
f 31 32 33
f 33 32 34
f 33 34 35
f 35 34 36
f 35 36 37
f 37 36 38
f 37 38 39
f 39 38 40
f 39 40 41
f 41 40 42
f 41 42 43
f 44 45 46
f 46 45 47
f 46 47 48
f 48 47 49
f 48 49 50
f 50 49 51
f 50 51 52
f 52 51 53
f 52 53 54
f 54 53 55
f 54 55 56
f 56 55 57
f 58 59 60
f 60 59 61
f 60 61 62
f 62 61 63
f 62 63 64
f 64 63 65
f 64 65 66
f 66 65 67
f 66 67 68
f 68 67 69
f 68 69 70
f 70 69 71
f 70 71 72
f 72 71 73
f 74 75 76
f 74 76 77
f 77 76 78
f 77 78 79
f 79 78 80
f 79 80 81
f 81 80 82
f 81 82 83
f 84 85 86
f 86 85 87
f 86 87 88
f 88 87 89
f 88 89 90
f 90 89 91
f 90 91 92
f 92 91 93
f 92 93 94
f 93 95 94
f 94 95 96
f 94 96 97
f 97 96 98
f 97 98 99
f 100 91 101
f 101 91 89
f 101 89 102
f 102 89 87
f 102 87 103
f 103 87 85
f 103 85 104
f 104 85 105
f 104 105 106
f 106 105 107
f 106 107 108
f 108 107 109
f 110 111 112
f 112 111 113
f 112 113 114
f 114 113 115
f 114 115 116
f 116 115 117
f 116 117 118
f 118 117 119
f 118 119 120
f 120 119 121
f 120 121 122
f 122 121 123
f 122 123 124
f 124 123 125
f 126 127 16
f 128 129 130
f 130 129 131
f 130 131 132
f 132 131 133
f 133 131 134
f 133 134 135
f 135 134 136
f 136 134 137
f 136 137 138
f 138 137 3
f 3 137 139
f 3 139 8
f 140 11 139
f 139 11 9
f 139 9 8
f 16 15 126
f 126 15 14
f 126 14 140
f 140 14 12
f 140 12 11
f 128 141 129
f 129 141 142
f 16 127 18
f 18 127 143
f 144 21 143
f 143 21 19
f 143 19 18
f 145 23 144
f 144 23 22
f 144 22 21
f 146 4 145
f 145 4 6
f 145 6 23
f 147 148 146
f 146 148 149
f 146 149 4
f 141 150 142
f 142 150 151
f 142 151 147
f 147 151 152
f 147 152 148
f 153 154 155
f 155 154 156
f 155 156 157
f 157 156 124
f 157 124 125
f 153 155 158
f 158 155 159
f 158 159 160
f 160 159 161
f 160 161 162
f 162 161 163
f 163 161 164
f 163 164 165
f 165 164 166
f 165 166 167
f 167 166 111
f 167 111 110
f 168 169 170
f 168 170 171
f 171 170 172
f 171 172 173
f 173 172 174
f 173 174 175
f 175 174 176
f 175 176 177
f 177 176 178
f 177 178 179
f 179 178 180
f 179 180 181
f 108 109 182
f 108 182 183
f 183 182 184
f 183 184 185
f 185 184 186
f 185 186 187
f 186 188 187
f 187 188 99
f 187 99 189
f 99 98 189
f 189 98 96
f 189 96 190
f 96 95 190
f 190 95 93
f 190 93 191
f 191 93 91
f 191 91 100
f 97 99 188
f 97 188 192
f 85 84 105
f 105 84 193
f 105 193 107
f 107 193 194
f 107 194 109
f 109 194 195
f 109 195 182
f 182 195 196
f 182 196 184
f 184 196 192
f 184 192 186
f 186 192 188
f 83 82 197
f 83 197 198
f 198 197 199
f 198 199 200
f 200 199 201
f 200 201 202
f 202 201 203
f 202 203 204
f 204 203 205
f 204 205 206
f 206 205 207
f 206 207 208
f 208 207 209
f 208 209 210
f 210 209 211
f 210 211 212
f 212 211 213
f 212 213 214
f 214 213 215
f 214 215 216
f 217 218 219
f 219 218 220
f 219 220 74
f 74 220 75
f 221 218 222
f 222 218 217
f 221 222 223
f 221 223 224
f 224 223 225
f 224 225 226
f 226 225 227
f 226 227 228
f 228 227 229
f 228 229 230
f 231 230 232
f 232 230 229
f 231 232 233
f 233 232 234
f 233 234 235
f 235 234 236
f 217 219 216
f 237 238 216
f 216 238 225
f 239 238 240
f 240 238 241
f 242 236 243
f 243 236 234
f 243 234 232
f 225 223 216
f 216 223 222
f 216 222 217
f 219 74 216
f 216 74 77
f 216 77 79
f 244 243 245
f 245 243 246
f 232 229 243
f 243 229 227
f 243 227 225
f 79 81 216
f 216 81 83
f 216 83 214
f 225 247 243
f 243 247 248
f 243 248 246
f 200 202 212
f 249 250 225
f 225 250 251
f 225 251 247
f 214 83 212
f 212 83 198
f 212 198 200
f 202 204 212
f 212 204 206
f 212 206 210
f 210 206 208
f 239 252 238
f 238 252 253
f 238 253 225
f 225 253 254
f 225 254 249
f 72 73 255
f 255 73 256
f 255 256 257
f 257 256 258
f 257 258 259
f 259 258 260
f 259 260 261
f 261 260 262
f 261 262 263
f 263 262 264
f 263 264 58
f 58 264 59
f 265 266 267
f 265 267 268
f 268 267 269
f 268 269 270
f 270 269 271
f 270 271 272
f 272 271 273
f 272 273 274
f 274 273 275
f 274 275 276
f 276 275 277
f 276 277 278
f 279 280 281
f 282 283 284
f 284 285 282
f 282 285 286
f 282 286 287
f 287 286 288
f 287 288 289
f 289 288 279
f 289 279 290
f 290 279 281
f 56 57 291
f 291 57 292
f 291 292 293
f 293 292 294
f 293 294 295
f 295 294 296
f 295 296 297
f 297 296 298
f 297 298 299
f 299 298 300
f 299 300 301
f 301 300 302
f 301 302 44
f 44 302 45
f 97 297 94
f 94 297 299
f 94 299 92
f 92 299 301
f 92 301 90
f 90 301 44
f 90 44 88
f 88 44 46
f 88 46 86
f 86 46 48
f 86 48 84
f 84 48 50
f 84 50 193
f 193 50 52
f 193 52 194
f 194 52 54
f 194 54 195
f 195 54 56
f 195 56 196
f 196 56 291
f 196 291 192
f 192 291 293
f 192 293 97
f 97 293 295
f 97 295 297
f 303 304 244
f 244 304 305
f 244 305 306
f 307 308 244
f 191 100 309
f 309 100 306
f 309 306 310
f 310 306 265
f 72 255 265
f 265 255 257
f 265 257 310
f 310 257 259
f 310 259 261
f 307 244 284
f 308 311 244
f 244 311 312
f 244 312 243
f 183 185 279
f 191 309 190
f 190 309 280
f 190 280 189
f 261 263 310
f 310 263 58
f 310 58 278
f 100 101 306
f 306 101 102
f 306 102 244
f 244 102 103
f 244 103 284
f 279 185 280
f 280 185 187
f 280 187 189
f 103 104 284
f 284 104 106
f 284 106 285
f 285 106 108
f 285 108 286
f 286 108 183
f 286 183 288
f 288 183 279
f 72 265 70
f 70 265 268
f 70 268 68
f 58 60 278
f 278 60 62
f 278 62 276
f 276 62 64
f 276 64 274
f 274 64 66
f 274 66 272
f 272 66 68
f 272 68 270
f 270 68 268
f 303 244 313
f 313 244 245
f 313 245 314
f 314 245 315
f 315 245 316
f 316 245 246
f 316 246 317
f 248 318 246
f 246 318 319
f 246 319 317
f 250 320 251
f 251 320 321
f 251 321 247
f 247 321 322
f 247 322 248
f 248 322 323
f 248 323 318
f 324 30 28
f 325 42 324
f 324 42 40
f 324 40 38
f 32 30 34
f 34 30 324
f 34 324 36
f 36 324 38
f 326 327 25
f 25 327 324
f 25 324 26
f 26 324 28
f 328 325 329
f 329 325 324
f 329 324 330
f 330 324 331
f 43 42 325
f 43 325 332
f 332 325 328
f 332 328 333
f 333 328 329
f 333 329 334
f 334 329 330
f 334 330 335
f 335 330 331
f 335 331 336
f 336 331 324
f 336 324 337
f 337 324 327
f 337 327 338
f 338 327 326
f 338 326 339
f 339 326 25
f 339 25 24
f 228 230 24
f 332 333 215
f 215 333 334
f 215 334 335
f 24 218 221
f 340 341 342
f 342 341 215
f 318 323 343
f 343 323 338
f 343 338 235
f 323 322 338
f 338 322 321
f 338 321 337
f 337 321 320
f 337 320 336
f 336 320 344
f 336 344 335
f 335 344 345
f 335 345 215
f 215 345 346
f 215 346 342
f 24 230 339
f 339 230 231
f 339 231 338
f 338 231 233
f 338 233 235
f 215 213 332
f 332 213 211
f 332 211 43
f 221 224 24
f 24 224 226
f 24 226 228
f 218 24 220
f 220 24 27
f 220 27 29
f 35 82 33
f 33 82 80
f 33 80 31
f 39 201 37
f 37 201 199
f 37 199 35
f 35 199 197
f 35 197 82
f 211 209 43
f 43 209 207
f 43 207 41
f 41 207 205
f 41 205 39
f 39 205 203
f 39 203 201
f 80 78 31
f 31 78 76
f 31 76 29
f 29 76 75
f 29 75 220
f 49 47 347
f 347 47 45
f 262 260 348
f 349 343 242
f 242 343 235
f 242 235 236
f 350 351 352
f 352 351 353
f 352 353 349
f 349 353 354
f 349 354 343
f 57 55 283
f 283 55 53
f 352 355 350
f 350 355 356
f 350 356 357
f 357 356 283
f 357 283 51
f 51 283 53
f 45 302 347
f 347 302 300
f 347 300 281
f 260 258 348
f 348 258 266
f 348 266 347
f 347 266 357
f 347 357 49
f 49 357 51
f 283 282 57
f 57 282 287
f 57 287 292
f 292 287 289
f 292 289 294
f 294 289 290
f 294 290 296
f 296 290 281
f 296 281 298
f 298 281 300
f 258 256 266
f 266 256 73
f 266 73 267
f 267 73 71
f 267 71 269
f 269 71 69
f 63 277 65
f 65 277 275
f 65 275 67
f 67 275 273
f 67 273 69
f 69 273 271
f 69 271 269
f 63 61 277
f 277 61 59
f 277 59 348
f 348 59 264
f 348 264 262
f 313 314 353
f 319 318 343
f 353 314 354
f 314 315 354
f 354 315 316
f 354 316 343
f 343 316 317
f 343 317 319
f 313 353 303
f 303 353 351
f 303 351 304
f 304 351 350
f 304 350 305
f 358 359 360
f 361 362 363
f 363 364 361
f 361 364 365
f 361 365 366
f 366 365 367
f 366 367 368
f 368 367 358
f 368 358 369
f 369 358 360
f 370 371 372
f 216 215 237
f 237 215 341
f 237 341 373
f 373 341 374
f 168 124 156
f 181 375 110
f 110 375 167
f 168 375 376
f 376 375 377
f 378 379 376
f 380 362 381
f 381 362 361
f 381 361 382
f 341 370 374
f 374 370 372
f 374 372 383
f 383 372 384
f 383 384 385
f 385 384 376
f 385 376 360
f 360 376 379
f 361 366 382
f 382 366 368
f 382 368 386
f 386 368 369
f 386 369 387
f 387 369 360
f 387 360 388
f 388 360 379
f 160 162 375
f 124 168 122
f 122 168 171
f 122 171 120
f 380 389 362
f 362 389 390
f 362 390 377
f 156 154 168
f 168 154 153
f 168 153 375
f 375 153 158
f 375 158 160
f 110 112 181
f 181 112 114
f 181 114 391
f 391 114 116
f 391 116 177
f 177 116 118
f 177 118 175
f 175 118 120
f 175 120 173
f 173 120 171
f 390 392 377
f 377 392 393
f 377 393 376
f 376 393 394
f 376 394 378
f 162 163 375
f 375 163 165
f 375 165 167
f 395 379 396
f 396 379 378
f 396 378 397
f 397 378 394
f 397 394 398
f 398 394 393
f 398 393 399
f 399 393 392
f 399 392 400
f 400 392 390
f 400 390 401
f 401 390 389
f 401 389 402
f 402 389 380
f 402 380 403
f 403 380 381
f 403 381 404
f 404 381 382
f 404 382 405
f 405 382 386
f 405 386 406
f 406 386 387
f 406 387 407
f 407 387 388
f 407 388 395
f 395 388 379
f 10 13 405
f 405 13 17
f 405 17 404
f 404 17 20
f 404 20 403
f 403 20 7
f 403 7 402
f 402 7 5
f 402 5 401
f 401 5 408
f 401 408 400
f 400 408 409
f 400 409 399
f 399 409 410
f 399 410 398
f 398 410 411
f 398 411 397
f 397 411 412
f 397 412 396
f 396 412 413
f 396 413 395
f 395 413 2
f 395 2 407
f 407 2 1
f 407 1 406
f 406 1 10
f 406 10 405
f 408 5 4
f 3 2 138
f 138 2 413
f 4 149 408
f 408 149 148
f 408 148 409
f 148 152 409
f 409 152 151
f 409 151 410
f 151 150 410
f 410 150 141
f 410 141 411
f 411 141 128
f 128 130 411
f 411 130 132
f 411 132 412
f 132 133 412
f 412 133 135
f 412 135 413
f 413 135 136
f 413 136 138
f 414 415 241
f 241 415 416
f 241 416 417
f 238 418 241
f 241 418 419
f 363 145 364
f 364 145 144
f 364 144 365
f 365 144 143
f 419 420 241
f 241 420 421
f 241 421 414
f 414 421 359
f 126 140 359
f 359 140 139
f 359 139 414
f 414 139 137
f 126 359 127
f 127 359 358
f 127 358 143
f 143 358 367
f 143 367 365
f 134 131 422
f 422 131 129
f 129 142 422
f 422 142 147
f 422 147 363
f 363 147 146
f 363 146 145
f 159 155 169
f 164 161 423
f 115 180 117
f 117 180 178
f 117 178 119
f 119 178 176
f 119 176 121
f 115 113 180
f 180 113 111
f 180 111 423
f 423 111 166
f 423 166 164
f 155 157 169
f 169 157 125
f 169 125 170
f 170 125 123
f 170 123 172
f 172 123 121
f 172 121 174
f 174 121 176
f 161 159 423
f 423 159 169
f 423 169 422
f 422 169 414
f 422 414 134
f 134 414 137
f 416 415 372
f 372 415 384
f 371 424 372
f 372 424 417
f 372 417 416
f 370 425 371
f 371 425 426
f 371 426 424
f 340 427 341
f 341 427 428
f 341 428 370
f 370 428 429
f 370 429 425
f 428 239 429
f 429 239 240
f 429 240 425
f 425 240 426
f 241 417 240
f 240 417 424
f 240 424 426
f 344 249 345
f 345 249 254
f 345 254 346
f 346 254 253
f 346 253 430
f 430 253 252
f 430 252 340
f 340 252 239
f 340 239 427
f 427 239 428
f 344 320 249
f 249 320 250
f 307 356 355
f 307 355 308
f 308 355 352
f 308 352 311
f 311 352 349
f 311 349 312
f 312 349 242
f 312 242 243
f 385 421 420
f 385 420 383
f 383 420 419
f 383 419 374
f 374 419 418
f 374 418 373
f 373 418 238
f 373 238 237
f 360 359 385
f 385 359 421
f 283 356 284
f 284 356 307
f 384 415 376
f 376 415 414
f 376 414 168
f 168 414 169
f 181 180 375
f 375 180 423
f 375 423 377
f 377 423 422
f 377 422 362
f 362 422 363
f 357 266 306
f 306 266 265
f 350 357 305
f 305 357 306
f 347 281 309
f 309 281 280
f 348 347 310
f 310 347 309
f 277 348 278
f 278 348 310
